<?xml version="1.0" encoding="UTF-8"?>
<svg width="300px" height="450px" viewBox="0 0 300 450" version="1.1" xmlns="http://www.w3.org/2000/svg" xmlns:xlink="http://www.w3.org/1999/xlink">
    <!-- Generator: Sketch 57.1 (83088) - https://sketch.com -->
    <title>Group</title>
    <desc>Created with Sketch.</desc>
    <g id="Page-1" stroke="none" stroke-width="1" fill="none" fill-rule="evenodd">
        <g id="Artboard">
            <rect fill="#EFEFEF" x="0" y="0" width="300" height="450"></rect>
            <g id="Group" transform="translate(66.000000, 197.000000)">
                <path d="M47.8157603,56 L36.6281909,56 C35.6159772,56 34.7769179,55.6933364 34.1109878,55.08 C33.4450577,54.4666636 33.0588241,53.760004 32.9522752,52.96 L26,2 L26,1.76 C26,1.2799976 26.1731392,0.8666684 26.5194229,0.52 C26.8657065,0.1733316 27.278577,0 27.7580466,0 L41.5027747,0 C42.5682628,0 43.4339589,0.3199968 44.099889,0.96 C44.7658191,1.6000032 45.1520527,2.3999952 45.2586016,3.36 L47.8157603,27.84 L52.4506104,15.12 C52.6104337,14.586664 52.9966673,14.0666692 53.609323,13.56 C54.2219786,13.0533308 55.0077644,12.8 55.9667037,12.8 L61.4006659,12.8 C62.3596052,12.8 63.1453909,13.0533308 63.7580466,13.56 C64.3707023,14.0666692 64.7569359,14.586664 64.9167592,15.12 L69.5516093,27.84 L72.108768,3.36 C72.2153168,2.3999952 72.6015505,1.6000032 73.2674806,0.96 C73.9334107,0.3199968 74.7991068,0 75.8645949,0 L89.609323,0 C90.0887926,0 90.5016631,0.1733316 90.8479467,0.52 C91.1942304,0.8666684 91.3673696,1.2799976 91.3673696,1.76 L91.3673696,2 L84.4150943,52.96 C84.3085455,53.760004 83.9223119,54.4666636 83.2563818,55.08 C82.5904517,55.6933364 81.7513924,56 80.7391787,56 L69.5516093,56 C68.59267,56 67.8068843,55.7600024 67.1942286,55.28 C66.581573,54.7999976 66.1953393,54.3200024 66.0355161,53.84 L58.6836848,36.96 L51.3318535,53.84 C51.1720303,54.3200024 50.7857966,54.7999976 50.173141,55.28 C49.5604853,55.7600024 48.7746996,56 47.8157603,56 Z M86.7125416,56 L71.609323,56 C71.1298533,56 70.7169829,55.8266684 70.3706992,55.48 C70.0244156,55.1333316 69.8512764,54.8000016 69.8512764,54.48 C69.8512764,54.1599984 69.8779132,53.9200008 69.9311876,53.76 L87.3518313,2.64 C87.831301,0.8799912 89.0299571,0 90.9478357,0 L113.163152,0 C115.081031,0 116.279687,0.8799912 116.759156,2.64 L134.1798,53.76 C134.233075,53.9200008 134.259711,54.1599984 134.259711,54.48 C134.259711,54.8000016 134.086572,55.1333316 133.740289,55.48 C133.394005,55.8266684 132.981134,56 132.501665,56 L117.398446,56 C115.693665,56 114.495009,55.0933424 113.802442,53.28 L111.804661,47.68 L92.3063263,47.68 L90.3085461,53.28 C89.6159788,55.0933424 88.4173226,56 86.7125416,56 Z M107.72919,32.08 L102.055494,15.44 L96.381798,32.08 L107.72919,32.08 Z M112.703663,0 L167.842397,0 C168.428416,0 168.934515,0.2133312 169.36071,0.64 C169.786906,1.0666688 170,1.5733304 170,2.16 L170,15.04 C170,15.6266696 169.786906,16.1333312 169.36071,16.56 C168.934515,16.9866688 168.428416,17.2 167.842397,17.2 L150.661487,17.2 L150.661487,53.84 C150.661487,54.4266696 150.448393,54.9333312 150.022198,55.36 C149.596002,55.7866688 149.089903,56 148.503885,56 L132.042175,56 C131.456157,56 130.950058,55.7866688 130.523862,55.36 C130.097667,54.9333312 129.884573,54.4266696 129.884573,53.84 L129.884573,17.2 L112.703663,17.2 C112.117644,17.2 111.611545,16.9866688 111.18535,16.56 C110.759154,16.1333312 110.54606,15.6266696 110.54606,15.04 L110.54606,2.16 C110.54606,1.5733304 110.759154,1.0666688 111.18535,0.64 C111.611545,0.2133312 112.117644,0 112.703663,0 Z" id="watch" fill="#355C7D" fill-rule="nonzero"></path>
                <circle id="Oval" fill="#F67280" cx="11" cy="45" r="11"></circle>
            </g>
        </g>
    </g>
</svg>