<?xml version="1.0" encoding="UTF-8"?>
<svg width="85px" height="30px" viewBox="0 0 85 30" version="1.1" xmlns="http://www.w3.org/2000/svg" xmlns:xlink="http://www.w3.org/1999/xlink">
    <!-- Generator: Sketch 57.1 (83088) - https://sketch.com -->
    <title>Artboard</title>
    <desc>Created with Sketch.</desc>
    <g id="Page-1" stroke="none" stroke-width="1" fill="none" fill-rule="evenodd">
        <g id="Artboard">
            <path d="M23.9078801,29 L18.3140954,29 C17.8079886,29 17.3884589,28.8466682 17.0554939,28.54 C16.7225289,28.2333318 16.529412,27.880002 16.4761376,27.48 L13,2 L13,1.88 C13,1.6399988 13.0865696,1.4333342 13.2597114,1.26 C13.4328533,1.0866658 13.6392885,1 13.8790233,1 L20.7513873,1 C21.2841314,1 21.7169795,1.1599984 22.0499445,1.48 C22.3829095,1.8000016 22.5760264,2.1999976 22.6293008,2.68 L23.9078801,14.92 L26.2253052,8.56 C26.3052168,8.293332 26.4983337,8.0333346 26.8046615,7.78 C27.1109893,7.5266654 27.5038822,7.4 27.9833518,7.4 L30.700333,7.4 C31.1798026,7.4 31.5726955,7.5266654 31.8790233,7.78 C32.1853511,8.0333346 32.378468,8.293332 32.4583796,8.56 L34.7758047,14.92 L36.054384,2.68 C36.1076584,2.1999976 36.3007752,1.8000016 36.6337403,1.48 C36.9667053,1.1599984 37.3995534,1 37.9322974,1 L44.8046615,1 C45.0443963,1 45.2508315,1.0866658 45.4239734,1.26 C45.5971152,1.4333342 45.6836848,1.6399988 45.6836848,1.88 L45.6836848,2 L42.2075472,27.48 C42.1542728,27.880002 41.9611559,28.2333318 41.6281909,28.54 C41.2952259,28.8466682 40.8756962,29 40.3695893,29 L34.7758047,29 C34.296335,29 33.9034422,28.8800012 33.5971143,28.64 C33.2907865,28.3999988 33.0976697,28.1600012 33.017758,27.92 L29.3418424,19.48 L25.6659267,27.92 C25.5860151,28.1600012 25.3928983,28.3999988 25.0865705,28.64 C24.7802426,28.8800012 24.3873498,29 23.9078801,29 Z M43.3562708,29 L35.8046615,29 C35.5649267,29 35.3584914,28.9133342 35.1853496,28.74 C35.0122078,28.5666658 34.9256382,28.4000008 34.9256382,28.24 C34.9256382,28.0799992 34.9389566,27.9600004 34.9655938,27.88 L43.6759156,2.32 C43.9156505,1.4399956 44.5149786,1 45.4739179,1 L56.581576,1 C57.5405153,1 58.1398434,1.4399956 58.3795782,2.32 L67.0899001,27.88 C67.1165373,27.9600004 67.1298557,28.0799992 67.1298557,28.24 C67.1298557,28.4000008 67.0432861,28.5666658 66.8701443,28.74 C66.6970025,28.9133342 66.4905672,29 66.2508324,29 L58.6992231,29 C57.8468326,29 57.2475045,28.5466712 56.9012209,27.64 L55.9023307,24.84 L46.1531632,24.84 L45.154273,27.64 C44.8079894,28.5466712 44.2086613,29 43.3562708,29 Z M53.8645949,17.04 L51.0277469,8.72 L48.190899,17.04 L53.8645949,17.04 Z M56.3518313,1 L83.9211987,1 C84.2142079,1 84.4672575,1.1066656 84.6803552,1.32 C84.8934528,1.5333344 85,1.7866652 85,2.08 L85,8.52 C85,8.8133348 84.8934528,9.0666656 84.6803552,9.28 C84.4672575,9.4933344 84.2142079,9.6 83.9211987,9.6 L75.3307436,9.6 L75.3307436,27.92 C75.3307436,28.2133348 75.2241964,28.4666656 75.0110988,28.68 C74.7980012,28.8933344 74.5449515,29 74.2519423,29 L66.0210877,29 C65.7280784,29 65.4750288,28.8933344 65.2619312,28.68 C65.0488336,28.4666656 64.9422863,28.2133348 64.9422863,27.92 L64.9422863,9.6 L56.3518313,9.6 C56.0588221,9.6 55.8057724,9.4933344 55.5926748,9.28 C55.3795772,9.0666656 55.27303,8.8133348 55.27303,8.52 L55.27303,2.08 C55.27303,1.7866652 55.3795772,1.5333344 55.5926748,1.32 C55.8057724,1.1066656 56.0588221,1 56.3518313,1 Z" id="watch" fill="#FFFFFF" fill-rule="nonzero"></path>
            <circle id="Oval" fill="#F67280" cx="5.5" cy="23.5" r="5.5"></circle>
        </g>
    </g>
</svg>